<svg xmlns="http://www.w3.org/2000/svg" xmlns:xlink="http://www.w3.org/1999/xlink" contentStyleType="text/css" data-diagram-type="CLASS" height="1016px" preserveAspectRatio="none" style="width:3000px;height:1016px;background:#FFFFFF;" version="1.1" viewBox="0 0 3000 1016" width="3000px" zoomAndPan="magnify"><defs/><g><!--cluster Crypto Layer--><g class="cluster" data-entity="Crypto Layer" data-source-line="16" data-uid="ent0002" id="cluster_Crypto Layer"><rect fill="#C8FACC" height="139" rx="7.5" ry="7.5" style="stroke:#000000;stroke-width:1.5;" width="863.71" x="1377.68" y="797.7"/><text fill="#000000" font-family="sans-serif" font-size="14" font-weight="bold" lengthAdjust="spacing" textLength="101.4043" x="1758.8329" y="812.6951">Crypto Layer</text></g><!--cluster Storage Layer--><g class="cluster" data-entity="Storage Layer" data-source-line="31" data-uid="ent0005" id="cluster_Storage Layer"><rect fill="#FFF6CC" height="213" rx="7.5" ry="7.5" style="stroke:#000000;stroke-width:1.5;" width="724.72" x="2269.39" y="227.7"/><text fill="#000000" font-family="sans-serif" font-size="14" font-weight="bold" lengthAdjust="spacing" textLength="111.0293" x="2576.2354" y="242.6951">Storage Layer</text></g><!--cluster Repositories--><g class="cluster" data-entity="Repositories" data-source-line="55" data-uid="ent0008" id="cluster_Repositories"><rect fill="#E6E6FA" height="386" rx="7.5" ry="7.5" style="stroke:#000000;stroke-width:1.5;" width="1688.48" x="489.88" y="77.7"/><text fill="#000000" font-family="sans-serif" font-size="14" font-weight="bold" lengthAdjust="spacing" textLength="98.8887" x="1284.6757" y="92.6951">Repositories</text></g><!--cluster Core--><g class="cluster" data-entity="Core" data-source-line="105" data-uid="ent0014" id="cluster_Core"><rect fill="#FFEBEE" height="492" rx="7.5" ry="7.5" style="stroke:#000000;stroke-width:1.5;" width="371.32" x="978.36" y="487.7"/><text fill="#000000" font-family="sans-serif" font-size="14" font-weight="bold" lengthAdjust="spacing" textLength="36.292" x="1145.874" y="502.6951">Core</text></g><!--cluster Factory & Dependencies--><g class="cluster" data-entity="Factory . Dependencies" data-source-line="135" data-uid="ent0017" id="cluster_Factory . Dependencies"><rect fill="#E8F5E9" height="279" rx="7.5" ry="7.5" style="stroke:#000000;stroke-width:1.5;" width="232.66" x="229.22" y="462.7"/><text fill="#000000" font-family="sans-serif" font-size="14" font-weight="bold" lengthAdjust="spacing" textLength="192.6162" x="249.2419" y="477.6951">Factory &amp; Dependencies</text></g><!--class CryptoStrategy--><g class="entity" data-entity="CryptoStrategy" data-source-line="17" data-uid="ent0003" id="entity_CryptoStrategy"><rect fill="#FFFFFF" height="88.8594" rx="7.5" ry="7.5" style="stroke:#333333;stroke-width:0.5;" width="385.8574" x="1393.68" y="832.27"/><ellipse cx="1528.9871" cy="852.4028" fill="#B4A7E5" rx="11" ry="11" style="stroke:#181818;stroke-width:1;"/><path d="M1524.909,848.1684 L1524.909,846.0122 L1532.2996,846.0122 L1532.2996,848.1684 L1529.8309,848.1684 L1529.8309,856.2466 L1532.2996,856.2466 L1532.2996,858.4028 L1524.909,858.4028 L1524.909,856.2466 L1527.3778,856.2466 L1527.3778,848.1684 L1524.909,848.1684 Z " fill="#000000"/><text fill="#000000" font-family="sans-serif" font-size="12" font-style="italic" lengthAdjust="spacing" textLength="68.2031" x="1568.7571" y="848.4087">&#171;interface&#187;</text><text fill="#000000" font-family="sans-serif" font-size="14" font-style="italic" lengthAdjust="spacing" textLength="106.7432" x="1549.4871" y="864.2339">CryptoStrategy</text><line style="stroke:#333333;stroke-width:0.5;" x1="1394.68" x2="1778.5374" y1="872.5356" y2="872.5356"/><line style="stroke:#333333;stroke-width:0.5;" x1="1394.68" x2="1778.5374" y1="880.5356" y2="880.5356"/><text fill="#000000" font-family="sans-serif" font-size="14" lengthAdjust="spacing" textLength="362.585" x="1399.68" y="897.5307">+Encrypt(key []byte, plaintext string) (string, error)</text><text fill="#000000" font-family="sans-serif" font-size="14" lengthAdjust="spacing" textLength="373.8574" x="1399.68" y="913.8276">+Decrypt(key []byte, ciphertext string) (string, error)</text></g><!--class AESGCM--><g class="entity" data-entity="AESGCM" data-source-line="22" data-uid="ent0004" id="entity_AESGCM"><rect fill="#FFFFFF" height="80.5938" rx="7.5" ry="7.5" style="stroke:#333333;stroke-width:0.5;" width="385.8574" x="1839.54" y="836.4"/><ellipse cx="1998.2124" cy="852.4" fill="#ADD1B2" rx="11" ry="11" style="stroke:#181818;stroke-width:1;"/><path d="M2001.1811,858.0406 Q2000.603,858.3375 1999.9624,858.4781 Q1999.3217,858.6344 1998.6186,858.6344 Q1996.1186,858.6344 1994.7905,856.9938 Q1993.478,855.3375 1993.478,852.2125 Q1993.478,849.0875 1994.7905,847.4313 Q1996.1186,845.775 1998.6186,845.775 Q1999.3217,845.775 1999.9624,845.9313 Q2000.6186,846.0875 2001.1811,846.3844 L2001.1811,849.1031 Q2000.5561,848.525 1999.9624,848.2594 Q1999.3686,847.9781 1998.7436,847.9781 Q1997.3999,847.9781 1996.7124,849.0563 Q1996.0249,850.1188 1996.0249,852.2125 Q1996.0249,854.3063 1996.7124,855.3844 Q1997.3999,856.4469 1998.7436,856.4469 Q1999.3686,856.4469 1999.9624,856.1813 Q2000.5561,855.9 2001.1811,855.3219 L2001.1811,858.0406 Z " fill="#000000"/><text fill="#000000" font-family="sans-serif" font-size="14" lengthAdjust="spacing" textLength="60.0127" x="2018.7124" y="857.2467">AESGCM</text><line style="stroke:#333333;stroke-width:0.5;" x1="1840.54" x2="2224.3974" y1="868.4" y2="868.4"/><line style="stroke:#333333;stroke-width:0.5;" x1="1840.54" x2="2224.3974" y1="876.4" y2="876.4"/><text fill="#000000" font-family="sans-serif" font-size="14" lengthAdjust="spacing" textLength="362.585" x="1845.54" y="893.3951">+Encrypt(key []byte, plaintext string) (string, error)</text><text fill="#000000" font-family="sans-serif" font-size="14" lengthAdjust="spacing" textLength="373.8574" x="1845.54" y="909.692">+Decrypt(key []byte, ciphertext string) (string, error)</text></g><!--class DB--><g class="entity" data-entity="DB" data-source-line="32" data-uid="ent0006" id="entity_DB"><rect fill="#FFFFFF" height="154.0469" rx="7.5" ry="7.5" style="stroke:#333333;stroke-width:0.5;" width="316.3564" x="2285.39" y="266.68"/><ellipse cx="2407.2167" cy="286.8128" fill="#B4A7E5" rx="11" ry="11" style="stroke:#181818;stroke-width:1;"/><path d="M2403.1385,282.5784 L2403.1385,280.4222 L2410.5292,280.4222 L2410.5292,282.5784 L2408.0604,282.5784 L2408.0604,290.6566 L2410.5292,290.6566 L2410.5292,292.8128 L2403.1385,292.8128 L2403.1385,290.6566 L2405.6073,290.6566 L2405.6073,282.5784 L2403.1385,282.5784 Z " fill="#000000"/><text fill="#000000" font-family="sans-serif" font-size="12" font-style="italic" lengthAdjust="spacing" textLength="68.2031" x="2425.7167" y="282.8187">&#171;interface&#187;</text><text fill="#000000" font-family="sans-serif" font-size="14" font-style="italic" lengthAdjust="spacing" textLength="20.3848" x="2449.6258" y="298.6439">DB</text><line style="stroke:#333333;stroke-width:0.5;" x1="2286.39" x2="2600.7464" y1="306.9456" y2="306.9456"/><line style="stroke:#333333;stroke-width:0.5;" x1="2286.39" x2="2600.7464" y1="314.9456" y2="314.9456"/><text fill="#000000" font-family="sans-serif" font-size="14" lengthAdjust="spacing" textLength="304.3564" x="2291.39" y="331.9407">+Put(bucket, key string, value []byte) error</text><text fill="#000000" font-family="sans-serif" font-size="14" lengthAdjust="spacing" textLength="274.7363" x="2291.39" y="348.2376">+Get(bucket, key string) ([]byte, error)</text><text fill="#000000" font-family="sans-serif" font-size="14" lengthAdjust="spacing" textLength="233.7617" x="2291.39" y="364.5345">+Delete(bucket, key string) error</text><text fill="#000000" font-family="sans-serif" font-size="14" lengthAdjust="spacing" textLength="282.6387" x="2291.39" y="380.8314">+ListKeys(bucket string) ([]string, error)</text><text fill="#000000" font-family="sans-serif" font-size="14" lengthAdjust="spacing" textLength="249.0674" x="2291.39" y="397.1282">+CreateBucket(bucket string) error</text><text fill="#000000" font-family="sans-serif" font-size="14" lengthAdjust="spacing" textLength="99.6885" x="2291.39" y="413.4251">+Close() error</text></g><!--class BoltStore--><g class="entity" data-entity="BoltStore" data-source-line="41" data-uid="ent0007" id="entity_BoltStore"><rect fill="#FFFFFF" height="162.0781" rx="7.5" ry="7.5" style="stroke:#333333;stroke-width:0.5;" width="316.3564" x="2661.75" y="262.66"/><ellipse cx="2783.2485" cy="278.66" fill="#ADD1B2" rx="11" ry="11" style="stroke:#181818;stroke-width:1;"/><path d="M2786.2173,284.3006 Q2785.6392,284.5975 2784.9985,284.7381 Q2784.3579,284.8944 2783.6548,284.8944 Q2781.1548,284.8944 2779.8267,283.2537 Q2778.5142,281.5975 2778.5142,278.4725 Q2778.5142,275.3475 2779.8267,273.6912 Q2781.1548,272.035 2783.6548,272.035 Q2784.3579,272.035 2784.9985,272.1912 Q2785.6548,272.3475 2786.2173,272.6444 L2786.2173,275.3631 Q2785.5923,274.785 2784.9985,274.5194 Q2784.4048,274.2381 2783.7798,274.2381 Q2782.436,274.2381 2781.7485,275.3162 Q2781.061,276.3787 2781.061,278.4725 Q2781.061,280.5662 2781.7485,281.6444 Q2782.436,282.7069 2783.7798,282.7069 Q2784.4048,282.7069 2784.9985,282.4412 Q2785.5923,282.16 2786.2173,281.5819 L2786.2173,284.3006 Z " fill="#000000"/><text fill="#000000" font-family="sans-serif" font-size="14" lengthAdjust="spacing" textLength="64.8594" x="2803.7485" y="283.5067">BoltStore</text><line style="stroke:#333333;stroke-width:0.5;" x1="2662.75" x2="2977.1064" y1="294.66" y2="294.66"/><text fill="#000000" font-family="sans-serif" font-size="14" lengthAdjust="spacing" textLength="85.9414" x="2667.75" y="311.6551">-db *bolt.DB</text><line style="stroke:#333333;stroke-width:0.5;" x1="2662.75" x2="2977.1064" y1="318.9569" y2="318.9569"/><text fill="#000000" font-family="sans-serif" font-size="14" lengthAdjust="spacing" textLength="304.3564" x="2667.75" y="335.952">+Put(bucket, key string, value []byte) error</text><text fill="#000000" font-family="sans-serif" font-size="14" lengthAdjust="spacing" textLength="274.7363" x="2667.75" y="352.2489">+Get(bucket, key string) ([]byte, error)</text><text fill="#000000" font-family="sans-serif" font-size="14" lengthAdjust="spacing" textLength="233.7617" x="2667.75" y="368.5457">+Delete(bucket, key string) error</text><text fill="#000000" font-family="sans-serif" font-size="14" lengthAdjust="spacing" textLength="282.6387" x="2667.75" y="384.8426">+ListKeys(bucket string) ([]string, error)</text><text fill="#000000" font-family="sans-serif" font-size="14" lengthAdjust="spacing" textLength="249.0674" x="2667.75" y="401.1395">+CreateBucket(bucket string) error</text><text fill="#000000" font-family="sans-serif" font-size="14" lengthAdjust="spacing" textLength="99.6885" x="2667.75" y="417.4364">+Close() error</text></g><!--class Repository--><g class="entity" data-entity="Repository" data-source-line="56" data-uid="ent0009" id="entity_Repository"><rect fill="#FFFFFF" height="121.4531" rx="7.5" ry="7.5" style="stroke:#333333;stroke-width:0.5;" width="259.7891" x="1456.71" y="282.97"/><ellipse cx="1544.8184" cy="303.1028" fill="#B4A7E5" rx="11" ry="11" style="stroke:#181818;stroke-width:1;"/><path d="M1540.7403,298.8684 L1540.7403,296.7122 L1548.1309,296.7122 L1548.1309,298.8684 L1545.6621,298.8684 L1545.6621,306.9466 L1548.1309,306.9466 L1548.1309,309.1028 L1540.7403,309.1028 L1540.7403,306.9466 L1543.209,306.9466 L1543.209,298.8684 L1540.7403,298.8684 Z " fill="#000000"/><text fill="#000000" font-family="sans-serif" font-size="12" font-style="italic" lengthAdjust="spacing" textLength="68.2031" x="1568.753" y="299.1087">&#171;interface&#187;</text><text fill="#000000" font-family="sans-serif" font-size="14" font-style="italic" lengthAdjust="spacing" textLength="75.0723" x="1565.3184" y="314.9339">Repository</text><line style="stroke:#333333;stroke-width:0.5;" x1="1457.71" x2="1715.4991" y1="323.2356" y2="323.2356"/><line style="stroke:#333333;stroke-width:0.5;" x1="1457.71" x2="1715.4991" y1="331.2356" y2="331.2356"/><text fill="#000000" font-family="sans-serif" font-size="14" lengthAdjust="spacing" textLength="247.7891" x="1462.71" y="348.2307">+Put(key string, value []byte) error</text><text fill="#000000" font-family="sans-serif" font-size="14" lengthAdjust="spacing" textLength="218.1689" x="1462.71" y="364.5276">+Get(key string) ([]byte, error)</text><text fill="#000000" font-family="sans-serif" font-size="14" lengthAdjust="spacing" textLength="177.1943" x="1462.71" y="380.8245">+Delete(key string) error</text><text fill="#000000" font-family="sans-serif" font-size="14" lengthAdjust="spacing" textLength="190.333" x="1462.71" y="397.1214">+ListKeys() ([]string, error)</text></g><!--class SecretRepository--><g class="entity" data-entity="SecretRepository" data-source-line="63" data-uid="ent0010" id="entity_SecretRepository"><rect fill="#FFFFFF" height="137.75" rx="7.5" ry="7.5" style="stroke:#333333;stroke-width:0.5;" width="253.8828" x="593.18" y="309.83"/><ellipse cx="655.8074" cy="329.9628" fill="#B4A7E5" rx="11" ry="11" style="stroke:#181818;stroke-width:1;"/><path d="M651.7293,325.7284 L651.7293,323.5722 L659.1199,323.5722 L659.1199,325.7284 L656.6512,325.7284 L656.6512,333.8066 L659.1199,333.8066 L659.1199,335.9628 L651.7293,335.9628 L651.7293,333.8066 L654.1981,333.8066 L654.1981,325.7284 L651.7293,325.7284 Z " fill="#000000"/><text fill="#000000" font-family="sans-serif" font-size="12" font-style="italic" lengthAdjust="spacing" textLength="68.2031" x="702.2698" y="325.9687">&#171;interface&#187;</text><text fill="#000000" font-family="sans-serif" font-size="14" font-style="italic" lengthAdjust="spacing" textLength="120.1279" x="676.3074" y="341.7939">SecretRepository</text><line style="stroke:#333333;stroke-width:0.5;" x1="594.18" x2="846.0628" y1="350.0956" y2="350.0956"/><line style="stroke:#333333;stroke-width:0.5;" x1="594.18" x2="846.0628" y1="358.0956" y2="358.0956"/><text fill="#000000" font-family="sans-serif" font-size="14" lengthAdjust="spacing" textLength="241.8828" x="599.18" y="375.0907">+Add(secret Secret) (string, error)</text><text fill="#000000" font-family="sans-serif" font-size="14" lengthAdjust="spacing" textLength="228.0264" x="599.18" y="391.3876">+Get(key string) (*Secret, error)</text><text fill="#000000" font-family="sans-serif" font-size="14" lengthAdjust="spacing" textLength="205.2217" x="599.18" y="407.6845">+Update(secret Secret) error</text><text fill="#000000" font-family="sans-serif" font-size="14" lengthAdjust="spacing" textLength="177.1943" x="599.18" y="423.9814">+Delete(key string) error</text><text fill="#000000" font-family="sans-serif" font-size="14" lengthAdjust="spacing" textLength="161.8271" x="599.18" y="440.2782">+List() ([]Secret, error)</text></g><!--class BaseRepository--><g class="entity" data-entity="BaseRepository" data-source-line="71" data-uid="ent0011" id="entity_BaseRepository"><rect fill="#FFFFFF" height="145.7813" rx="7.5" ry="7.5" style="stroke:#333333;stroke-width:0.5;" width="259.7891" x="1902.57" y="270.81"/><ellipse cx="1973.633" cy="286.81" fill="#ADD1B2" rx="11" ry="11" style="stroke:#181818;stroke-width:1;"/><path d="M1976.6017,292.4506 Q1976.0236,292.7475 1975.383,292.8881 Q1974.7424,293.0444 1974.0392,293.0444 Q1971.5392,293.0444 1970.2111,291.4037 Q1968.8986,289.7475 1968.8986,286.6225 Q1968.8986,283.4975 1970.2111,281.8412 Q1971.5392,280.185 1974.0392,280.185 Q1974.7424,280.185 1975.383,280.3412 Q1976.0392,280.4975 1976.6017,280.7944 L1976.6017,283.5131 Q1975.9767,282.935 1975.383,282.6694 Q1974.7892,282.3881 1974.1642,282.3881 Q1972.8205,282.3881 1972.133,283.4662 Q1971.4455,284.5287 1971.4455,286.6225 Q1971.4455,288.7162 1972.133,289.7944 Q1972.8205,290.8569 1974.1642,290.8569 Q1974.7892,290.8569 1975.383,290.5912 Q1975.9767,290.31 1976.6017,289.7319 L1976.6017,292.4506 Z " fill="#000000"/><text fill="#000000" font-family="sans-serif" font-size="14" lengthAdjust="spacing" textLength="109.1631" x="1994.133" y="291.6567">BaseRepository</text><line style="stroke:#333333;stroke-width:0.5;" x1="1903.57" x2="2161.3591" y1="302.81" y2="302.81"/><text fill="#000000" font-family="sans-serif" font-size="14" lengthAdjust="spacing" textLength="47.6602" x="1908.57" y="319.8051">-db DB</text><text fill="#000000" font-family="sans-serif" font-size="14" lengthAdjust="spacing" textLength="97.3574" x="1908.57" y="336.102">-bucket string</text><line style="stroke:#333333;stroke-width:0.5;" x1="1903.57" x2="2161.3591" y1="343.4037" y2="343.4037"/><text fill="#000000" font-family="sans-serif" font-size="14" lengthAdjust="spacing" textLength="247.7891" x="1908.57" y="360.3989">+Put(key string, value []byte) error</text><text fill="#000000" font-family="sans-serif" font-size="14" lengthAdjust="spacing" textLength="218.1689" x="1908.57" y="376.6957">+Get(key string) ([]byte, error)</text><text fill="#000000" font-family="sans-serif" font-size="14" lengthAdjust="spacing" textLength="177.1943" x="1908.57" y="392.9926">+Delete(key string) error</text><text fill="#000000" font-family="sans-serif" font-size="14" lengthAdjust="spacing" textLength="190.333" x="1908.57" y="409.2895">+ListKeys() ([]string, error)</text></g><!--class EncryptedRepository--><g class="entity" data-entity="EncryptedRepository" data-source-line="80" data-uid="ent0012" id="entity_EncryptedRepository"><rect fill="#FFFFFF" height="178.375" rx="7.5" ry="7.5" style="stroke:#333333;stroke-width:0.5;" width="253.8828" x="1037.08" y="222.51"/><ellipse cx="1086.5688" cy="238.51" fill="#ADD1B2" rx="11" ry="11" style="stroke:#181818;stroke-width:1;"/><path d="M1089.5375,244.1506 Q1088.9594,244.4475 1088.3188,244.5881 Q1087.6781,244.7444 1086.975,244.7444 Q1084.475,244.7444 1083.1469,243.1038 Q1081.8344,241.4475 1081.8344,238.3225 Q1081.8344,235.1975 1083.1469,233.5413 Q1084.475,231.885 1086.975,231.885 Q1087.6781,231.885 1088.3188,232.0413 Q1088.975,232.1975 1089.5375,232.4944 L1089.5375,235.2131 Q1088.9125,234.635 1088.3188,234.3694 Q1087.725,234.0881 1087.1,234.0881 Q1085.7563,234.0881 1085.0688,235.1663 Q1084.3813,236.2288 1084.3813,238.3225 Q1084.3813,240.4163 1085.0688,241.4944 Q1085.7563,242.5569 1087.1,242.5569 Q1087.725,242.5569 1088.3188,242.2913 Q1088.9125,242.01 1089.5375,241.4319 L1089.5375,244.1506 Z " fill="#000000"/><text fill="#000000" font-family="sans-serif" font-size="14" lengthAdjust="spacing" textLength="146.4053" x="1107.0688" y="243.3567">EncryptedRepository</text><line style="stroke:#333333;stroke-width:0.5;" x1="1038.08" x2="1289.9628" y1="254.51" y2="254.51"/><text fill="#000000" font-family="sans-serif" font-size="14" lengthAdjust="spacing" textLength="116.3955" x="1043.08" y="271.5051">-repo Repository</text><text fill="#000000" font-family="sans-serif" font-size="14" lengthAdjust="spacing" textLength="88.0264" x="1043.08" y="287.802">-vault *Vault</text><text fill="#000000" font-family="sans-serif" font-size="14" lengthAdjust="spacing" textLength="97.3574" x="1043.08" y="304.0989">-bucket string</text><line style="stroke:#333333;stroke-width:0.5;" x1="1038.08" x2="1289.9628" y1="311.4006" y2="311.4006"/><text fill="#000000" font-family="sans-serif" font-size="14" lengthAdjust="spacing" textLength="241.8828" x="1043.08" y="328.3957">+Add(secret Secret) (string, error)</text><text fill="#000000" font-family="sans-serif" font-size="14" lengthAdjust="spacing" textLength="228.0264" x="1043.08" y="344.6926">+Get(key string) (*Secret, error)</text><text fill="#000000" font-family="sans-serif" font-size="14" lengthAdjust="spacing" textLength="205.2217" x="1043.08" y="360.9895">+Update(secret Secret) error</text><text fill="#000000" font-family="sans-serif" font-size="14" lengthAdjust="spacing" textLength="177.1943" x="1043.08" y="377.2864">+Delete(key string) error</text><text fill="#000000" font-family="sans-serif" font-size="14" lengthAdjust="spacing" textLength="161.8271" x="1043.08" y="393.5832">+List() ([]Secret, error)</text></g><!--class RepositoryFactory--><g class="entity" data-entity="RepositoryFactory" data-source-line="91" data-uid="ent0013" id="entity_RepositoryFactory"><rect fill="#FFFFFF" height="162.0781" rx="7.5" ry="7.5" style="stroke:#333333;stroke-width:0.5;" width="428.4795" x="505.88" y="112.66"/><ellipse cx="652.1212" cy="128.66" fill="#ADD1B2" rx="11" ry="11" style="stroke:#181818;stroke-width:1;"/><path d="M655.09,134.3006 Q654.5118,134.5975 653.8712,134.7381 Q653.2306,134.8944 652.5275,134.8944 Q650.0275,134.8944 648.6993,133.2537 Q647.3868,131.5975 647.3868,128.4725 Q647.3868,125.3475 648.6993,123.6912 Q650.0275,122.035 652.5275,122.035 Q653.2306,122.035 653.8712,122.1912 Q654.5275,122.3475 655.09,122.6444 L655.09,125.3631 Q654.465,124.785 653.8712,124.5194 Q653.2775,124.2381 652.6525,124.2381 Q651.3087,124.2381 650.6212,125.3162 Q649.9337,126.3787 649.9337,128.4725 Q649.9337,130.5662 650.6212,131.6444 Q651.3087,132.7069 652.6525,132.7069 Q653.2775,132.7069 653.8712,132.4412 Q654.465,132.16 655.09,131.5819 L655.09,134.3006 Z " fill="#000000"/><text fill="#000000" font-family="sans-serif" font-size="14" lengthAdjust="spacing" textLength="127.4971" x="672.6212" y="133.5067">RepositoryFactory</text><line style="stroke:#333333;stroke-width:0.5;" x1="506.88" x2="933.3595" y1="144.66" y2="144.66"/><text fill="#000000" font-family="sans-serif" font-size="14" lengthAdjust="spacing" textLength="47.6602" x="511.88" y="161.6551">-db DB</text><text fill="#000000" font-family="sans-serif" font-size="14" lengthAdjust="spacing" textLength="88.0264" x="511.88" y="177.952">-vault *Vault</text><text fill="#000000" font-family="sans-serif" font-size="14" lengthAdjust="spacing" textLength="148.6885" x="511.88" y="194.2489">-systemBucket string</text><text fill="#000000" font-family="sans-serif" font-size="14" lengthAdjust="spacing" textLength="148.832" x="511.88" y="210.5457">-secretsBucket string</text><line style="stroke:#333333;stroke-width:0.5;" x1="506.88" x2="933.3595" y1="217.8475" y2="217.8475"/><text fill="#000000" font-family="sans-serif" font-size="14" lengthAdjust="spacing" textLength="334.1816" x="511.88" y="234.8426">+NewBaseRepository(bucket string) Repository</text><text fill="#000000" font-family="sans-serif" font-size="14" lengthAdjust="spacing" textLength="416.4795" x="511.88" y="251.1395">+NewEncryptedRepository(bucket string) SecretRepository</text><text fill="#000000" font-family="sans-serif" font-size="14" lengthAdjust="spacing" textLength="138.1953" x="511.88" y="267.4364">+SetVault(v *Vault)</text></g><!--class Vault--><g class="entity" data-entity="Vault" data-source-line="106" data-uid="ent0015" id="entity_Vault"><rect fill="#FFFFFF" height="227.2656" rx="7.5" ry="7.5" style="stroke:#333333;stroke-width:0.5;" width="339.3184" x="994.36" y="736.07"/><ellipse cx="1141.5651" cy="752.07" fill="#ADD1B2" rx="11" ry="11" style="stroke:#181818;stroke-width:1;"/><path d="M1144.5338,757.7106 Q1143.9557,758.0075 1143.3151,758.1481 Q1142.6745,758.3044 1141.9713,758.3044 Q1139.4713,758.3044 1138.1432,756.6638 Q1136.8307,755.0075 1136.8307,751.8825 Q1136.8307,748.7575 1138.1432,747.1013 Q1139.4713,745.445 1141.9713,745.445 Q1142.6745,745.445 1143.3151,745.6013 Q1143.9713,745.7575 1144.5338,746.0544 L1144.5338,748.7731 Q1143.9088,748.195 1143.3151,747.9294 Q1142.7213,747.6481 1142.0963,747.6481 Q1140.7526,747.6481 1140.0651,748.7263 Q1139.3776,749.7888 1139.3776,751.8825 Q1139.3776,753.9763 1140.0651,755.0544 Q1140.7526,756.1169 1142.0963,756.1169 Q1142.7213,756.1169 1143.3151,755.8513 Q1143.9088,755.57 1144.5338,754.9919 L1144.5338,757.7106 Z " fill="#000000"/><text fill="#000000" font-family="sans-serif" font-size="14" lengthAdjust="spacing" textLength="36.4082" x="1162.0651" y="756.9167">Vault</text><line style="stroke:#333333;stroke-width:0.5;" x1="995.36" x2="1332.6784" y1="768.07" y2="768.07"/><text fill="#000000" font-family="sans-serif" font-size="14" lengthAdjust="spacing" textLength="174.6377" x="1000.36" y="785.0651">-strategy CryptoStrategy</text><text fill="#000000" font-family="sans-serif" font-size="14" lengthAdjust="spacing" textLength="76.7061" x="1000.36" y="801.362">-key []byte</text><text fill="#000000" font-family="sans-serif" font-size="14" lengthAdjust="spacing" textLength="76.9521" x="1000.36" y="817.6589">-salt []byte</text><text fill="#000000" font-family="sans-serif" font-size="14" lengthAdjust="spacing" textLength="102.915" x="1000.36" y="833.9557">-unlocked bool</text><line style="stroke:#333333;stroke-width:0.5;" x1="995.36" x2="1332.6784" y1="841.2575" y2="841.2575"/><text fill="#000000" font-family="sans-serif" font-size="14" lengthAdjust="spacing" textLength="195.6924" x="1000.36" y="858.2526">+Unlock(derivedKey []byte)</text><text fill="#000000" font-family="sans-serif" font-size="14" lengthAdjust="spacing" textLength="54.8242" x="1000.36" y="874.5495">+Lock()</text><text fill="#000000" font-family="sans-serif" font-size="14" lengthAdjust="spacing" textLength="133.3145" x="1000.36" y="890.8464">+IsUnlocked() bool</text><text fill="#000000" font-family="sans-serif" font-size="14" lengthAdjust="spacing" textLength="282.0303" x="1000.36" y="907.1432">+Encrypt(plaintext string) (string, error)</text><text fill="#000000" font-family="sans-serif" font-size="14" lengthAdjust="spacing" textLength="293.3027" x="1000.36" y="923.4401">+Decrypt(ciphertext string) (string, error)</text><text fill="#000000" font-family="sans-serif" font-size="14" lengthAdjust="spacing" textLength="290.8486" x="1000.36" y="939.737">+CreateVerificationToken() (string, error)</text><text fill="#000000" font-family="sans-serif" font-size="14" lengthAdjust="spacing" textLength="327.3184" x="1000.36" y="956.0339">+VerifyPassword(encryptedToken string) error</text></g><!--class Manager--><g class="entity" data-entity="Manager" data-source-line="120" data-uid="ent0016" id="entity_Manager"><rect fill="#FFFFFF" height="178.375" rx="7.5" ry="7.5" style="stroke:#333333;stroke-width:0.5;" width="281.6367" x="1023.2" y="522.51"/><ellipse cx="1129.0853" cy="538.51" fill="#ADD1B2" rx="11" ry="11" style="stroke:#181818;stroke-width:1;"/><path d="M1132.054,544.1506 Q1131.4759,544.4475 1130.8353,544.5881 Q1130.1946,544.7444 1129.4915,544.7444 Q1126.9915,544.7444 1125.6634,543.1038 Q1124.3509,541.4475 1124.3509,538.3225 Q1124.3509,535.1975 1125.6634,533.5413 Q1126.9915,531.885 1129.4915,531.885 Q1130.1946,531.885 1130.8353,532.0413 Q1131.4915,532.1975 1132.054,532.4944 L1132.054,535.2131 Q1131.429,534.635 1130.8353,534.3694 Q1130.2415,534.0881 1129.6165,534.0881 Q1128.2728,534.0881 1127.5853,535.1663 Q1126.8978,536.2288 1126.8978,538.3225 Q1126.8978,540.4163 1127.5853,541.4944 Q1128.2728,542.5569 1129.6165,542.5569 Q1130.2415,542.5569 1130.8353,542.2913 Q1131.429,542.01 1132.054,541.4319 L1132.054,544.1506 Z " fill="#000000"/><text fill="#000000" font-family="sans-serif" font-size="14" lengthAdjust="spacing" textLength="61.3662" x="1149.5853" y="543.3567">Manager</text><line style="stroke:#333333;stroke-width:0.5;" x1="1024.2" x2="1303.8367" y1="554.51" y2="554.51"/><text fill="#000000" font-family="sans-serif" font-size="14" lengthAdjust="spacing" textLength="116.3955" x="1029.2" y="571.5051">-repo Repository</text><text fill="#000000" font-family="sans-serif" font-size="14" lengthAdjust="spacing" textLength="82.9336" x="1029.2" y="587.802">-cfg *Config</text><line style="stroke:#333333;stroke-width:0.5;" x1="1024.2" x2="1303.8367" y1="595.1038" y2="595.1038"/><text fill="#000000" font-family="sans-serif" font-size="14" lengthAdjust="spacing" textLength="269.6367" x="1029.2" y="612.0989">+CreateSession(vaultKey []byte) error</text><text fill="#000000" font-family="sans-serif" font-size="14" lengthAdjust="spacing" textLength="103.2568" x="1029.2" y="628.3957">+IsValid() bool</text><text fill="#000000" font-family="sans-serif" font-size="14" lengthAdjust="spacing" textLength="164.8555" x="1029.2" y="644.6926">+UpdateActivity() error</text><text fill="#000000" font-family="sans-serif" font-size="14" lengthAdjust="spacing" textLength="227.0283" x="1029.2" y="660.9895">+GetCachedKey() ([]byte, error)</text><text fill="#000000" font-family="sans-serif" font-size="14" lengthAdjust="spacing" textLength="98.1641" x="1029.2" y="677.2864">+Clear() error</text><text fill="#000000" font-family="sans-serif" font-size="14" lengthAdjust="spacing" textLength="258.6035" x="1029.2" y="693.5832">+GetRemainingTime() time.Duration</text></g><!--class Factory--><g class="entity" data-entity="Factory" data-source-line="136" data-uid="ent0018" id="entity_Factory"><rect fill="#FFFFFF" height="227.2656" rx="7.5" ry="7.5" style="stroke:#333333;stroke-width:0.5;" width="200.6582" x="245.22" y="498.07"/><ellipse cx="315.0867" cy="514.07" fill="#ADD1B2" rx="11" ry="11" style="stroke:#181818;stroke-width:1;"/><path d="M318.0554,519.7106 Q317.4773,520.0075 316.8367,520.1481 Q316.1961,520.3044 315.4929,520.3044 Q312.9929,520.3044 311.6648,518.6637 Q310.3523,517.0075 310.3523,513.8825 Q310.3523,510.7575 311.6648,509.1012 Q312.9929,507.445 315.4929,507.445 Q316.1961,507.445 316.8367,507.6012 Q317.4929,507.7575 318.0554,508.0544 L318.0554,510.7731 Q317.4304,510.195 316.8367,509.9294 Q316.2429,509.6481 315.6179,509.6481 Q314.2742,509.6481 313.5867,510.7262 Q312.8992,511.7887 312.8992,513.8825 Q312.8992,515.9762 313.5867,517.0544 Q314.2742,518.1169 315.6179,518.1169 Q316.2429,518.1169 316.8367,517.8512 Q317.4304,517.57 318.0554,516.9919 L318.0554,519.7106 Z " fill="#000000"/><text fill="#000000" font-family="sans-serif" font-size="14" lengthAdjust="spacing" textLength="52.4248" x="335.5867" y="518.9167">Factory</text><line style="stroke:#333333;stroke-width:0.5;" x1="246.22" x2="444.8782" y1="530.07" y2="530.07"/><text fill="#000000" font-family="sans-serif" font-size="14" lengthAdjust="spacing" textLength="111.7334" x="251.22" y="547.0651">+IO *IOStreams</text><text fill="#000000" font-family="sans-serif" font-size="14" lengthAdjust="spacing" textLength="120.1963" x="251.22" y="563.362">+Logger *Logger</text><text fill="#000000" font-family="sans-serif" font-size="14" lengthAdjust="spacing" textLength="113.0186" x="251.22" y="579.6589">+Config *Config</text><text fill="#000000" font-family="sans-serif" font-size="14" lengthAdjust="spacing" textLength="56.9502" x="251.22" y="595.9557">+DB DB</text><text fill="#000000" font-family="sans-serif" font-size="14" lengthAdjust="spacing" textLength="95.9971" x="251.22" y="612.2526">+Vault *Vault</text><text fill="#000000" font-family="sans-serif" font-size="14" lengthAdjust="spacing" textLength="169.6816" x="251.22" y="628.5495">+Crypto CryptoStrategy</text><text fill="#000000" font-family="sans-serif" font-size="14" lengthAdjust="spacing" textLength="186.4707" x="251.22" y="644.8464">+Repo *RepositoryFactory</text><text fill="#000000" font-family="sans-serif" font-size="14" lengthAdjust="spacing" textLength="143.459" x="251.22" y="661.1432">+System Repository</text><text fill="#000000" font-family="sans-serif" font-size="14" lengthAdjust="spacing" textLength="188.6582" x="251.22" y="677.4401">+Secrets SecretRepository</text><text fill="#000000" font-family="sans-serif" font-size="14" lengthAdjust="spacing" textLength="137.9629" x="251.22" y="693.737">+Session *Manager</text><line style="stroke:#333333;stroke-width:0.5;" x1="246.22" x2="444.8782" y1="701.0387" y2="701.0387"/><text fill="#000000" font-family="sans-serif" font-size="14" lengthAdjust="spacing" textLength="60.792" x="251.22" y="718.0339">+Close()</text></g><g class="entity" data-entity="GMN37" data-source-line="185" data-uid="ent0038" id="entity_GMN37"><path d="M1931.32,960.5 L1931.32,1000.8984 A7.5,7.5 0 0 0 1938.82,1008.3984 L2126.1154,1008.3984 A7.5,7.5 0 0 0 2133.6154,1000.8984 L2133.6154,963 L2123.6154,953 L1938.82,953 A7.5,7.5 0 0 0 1931.32,960.5" fill="#FEFFDD" style="stroke:#181818;stroke-width:0.5;"/><path d="M2123.6154,953 L2123.6154,959.25 A3.75,3.75 0 0 0 2127.3654,963 L2133.6154,963 L2123.6154,953" fill="#FEFFDD" style="stroke:#181818;stroke-width:1;"/><text fill="#000000" font-family="sans-serif" font-size="13" lengthAdjust="spacing" textLength="111.7949" x="1937.32" y="970.0669">Strategy Pattern:</text><text fill="#000000" font-family="sans-serif" font-size="13" lengthAdjust="spacing" textLength="181.2954" x="1937.32" y="985.1997">Allows swapping encryption</text><text fill="#000000" font-family="sans-serif" font-size="13" lengthAdjust="spacing" textLength="142.0352" x="1937.32" y="1000.3325">algorithms at runtime</text></g><g class="entity" data-entity="GMN40" data-source-line="191" data-uid="ent0041" id="entity_GMN40"><path d="M1923.79,13.5 L1923.79,53.8984 A7.5,7.5 0 0 0 1931.29,61.3984 L2133.6294,61.3984 A7.5,7.5 0 0 0 2141.1294,53.8984 L2141.1294,16 L2131.1294,6 L1931.29,6 A7.5,7.5 0 0 0 1923.79,13.5" fill="#FEFFDD" style="stroke:#181818;stroke-width:0.5;"/><path d="M2131.1294,6 L2131.1294,12.25 A3.75,3.75 0 0 0 2134.8794,16 L2141.1294,16 L2131.1294,6" fill="#FEFFDD" style="stroke:#181818;stroke-width:1;"/><text fill="#000000" font-family="sans-serif" font-size="13" lengthAdjust="spacing" textLength="125.8042" x="1929.79" y="23.0669">Repository Pattern:</text><text fill="#000000" font-family="sans-serif" font-size="13" lengthAdjust="spacing" textLength="188.1826" x="1929.79" y="38.1997">Abstracts storage operations</text><text fill="#000000" font-family="sans-serif" font-size="13" lengthAdjust="spacing" textLength="196.3394" x="1929.79" y="53.3325">for easy testing and swapping</text></g><g class="entity" data-entity="GMN43" data-source-line="197" data-uid="ent0044" id="entity_GMN43"><path d="M1060.35,13.5 L1060.35,53.8984 A7.5,7.5 0 0 0 1067.85,61.3984 L1160.11,61.3984 L1164.11,222.21 L1168.11,61.3984 L1260.1791,61.3984 A7.5,7.5 0 0 0 1267.6791,53.8984 L1267.6791,16 L1257.6791,6 L1067.85,6 A7.5,7.5 0 0 0 1060.35,13.5" fill="#FEFFDD" style="stroke:#181818;stroke-width:0.5;"/><path d="M1257.6791,6 L1257.6791,12.25 A3.75,3.75 0 0 0 1261.4291,16 L1267.6791,16 L1257.6791,6" fill="#FEFFDD" style="stroke:#181818;stroke-width:0.5;"/><text fill="#000000" font-family="sans-serif" font-size="13" lengthAdjust="spacing" textLength="120.9102" x="1066.35" y="23.0669">Decorator Pattern:</text><text fill="#000000" font-family="sans-serif" font-size="13" lengthAdjust="spacing" textLength="186.3291" x="1066.35" y="38.1997">Adds transparent encryption</text><text fill="#000000" font-family="sans-serif" font-size="13" lengthAdjust="spacing" textLength="118.3267" x="1066.35" y="53.3325">to base repository</text></g><g class="entity" data-entity="GMN46" data-source-line="203" data-uid="ent0047" id="entity_GMN46"><path d="M6,583.94 L6,639.4712 A7.5,7.5 0 0 0 13.5,646.9712 L177.7217,646.9712 A7.5,7.5 0 0 0 185.2217,639.4712 L185.2217,615.7 L245.02,611.7 L185.2217,607.7 L185.2217,586.44 L175.2217,576.44 L13.5,576.44 A7.5,7.5 0 0 0 6,583.94" fill="#FEFFDD" style="stroke:#181818;stroke-width:0.5;"/><path d="M175.2217,576.44 L175.2217,582.69 A3.75,3.75 0 0 0 178.9717,586.44 L185.2217,586.44 L175.2217,576.44" fill="#FEFFDD" style="stroke:#181818;stroke-width:0.5;"/><text fill="#000000" font-family="sans-serif" font-size="13" lengthAdjust="spacing" textLength="104.7744" x="12" y="593.5069">Factory Pattern:</text><text fill="#000000" font-family="sans-serif" font-size="13" lengthAdjust="spacing" textLength="158.2217" x="12" y="608.6397">Centralized dependency</text><text fill="#000000" font-family="sans-serif" font-size="13" lengthAdjust="spacing" textLength="141.6289" x="12" y="623.7725">injection and lifecycle</text><text fill="#000000" font-family="sans-serif" font-size="13" lengthAdjust="spacing" textLength="87.0835" x="12" y="638.9053">management</text></g><!--reverse link CryptoStrategy to AESGCM--><g class="link" data-entity-1="CryptoStrategy" data-entity-2="AESGCM" data-source-line="156" data-uid="lnk19" id="link_CryptoStrategy_AESGCM"><path codeLine="156" d="M1797.9,876.7 C1817.53,876.7 1819.48,876.7 1839.12,876.7" fill="none" id="CryptoStrategy-backto-AESGCM" style="stroke:#181818;stroke-width:1;stroke-dasharray:7,7;"/><polygon fill="none" points="1779.9,876.7,1797.9,882.7,1797.9,870.7,1779.9,876.7" style="stroke:#181818;stroke-width:1;"/></g><!--reverse link DB to BoltStore--><g class="link" data-entity-1="DB" data-entity-2="BoltStore" data-source-line="157" data-uid="lnk20" id="link_DB_BoltStore"><path codeLine="157" d="M2620.09,343.7 C2639.68,343.7 2641.7,343.7 2661.29,343.7" fill="none" id="DB-backto-BoltStore" style="stroke:#181818;stroke-width:1;stroke-dasharray:7,7;"/><polygon fill="none" points="2602.09,343.7,2620.09,349.7,2620.09,337.7,2602.09,343.7" style="stroke:#181818;stroke-width:1;"/></g><!--reverse link Repository to BaseRepository--><g class="link" data-entity-1="Repository" data-entity-2="BaseRepository" data-source-line="158" data-uid="lnk21" id="link_Repository_BaseRepository"><path codeLine="158" d="M1734.77,343.7 C1793.11,343.7 1843.78,343.7 1902.14,343.7" fill="none" id="Repository-backto-BaseRepository" style="stroke:#181818;stroke-width:1;stroke-dasharray:7,7;"/><polygon fill="none" points="1716.77,343.7,1734.77,349.7,1734.77,337.7,1716.77,343.7" style="stroke:#181818;stroke-width:1;"/></g><!--reverse link SecretRepository to EncryptedRepository--><g class="link" data-entity-1="SecretRepository" data-entity-2="EncryptedRepository" data-source-line="159" data-uid="lnk22" id="link_SecretRepository_EncryptedRepository"><path codeLine="159" d="M865.32,340.18 C924.76,340.18 977.36,340.18 1036.8,340.18" fill="none" id="SecretRepository-backto-EncryptedRepository" style="stroke:#181818;stroke-width:1;stroke-dasharray:7,7;"/><polygon fill="none" points="847.32,340.18,865.32,346.18,865.32,334.18,847.32,340.18" style="stroke:#181818;stroke-width:1;"/></g><!--reverse link Vault to CryptoStrategy--><g class="link" data-entity-1="Vault" data-entity-2="CryptoStrategy" data-source-line="162" data-uid="lnk23" id="link_Vault_CryptoStrategy"><path codeLine="162" d="M1346.07,876.7 C1365.57,876.7 1373.55,876.7 1393.32,876.7" fill="none" id="Vault-backto-CryptoStrategy" style="stroke:#181818;stroke-width:1;"/><polygon fill="#181818" points="1334.07,876.7,1340.07,880.7,1346.07,876.7,1340.07,872.7,1334.07,876.7" style="stroke:#181818;stroke-width:1;"/><text fill="#000000" font-family="sans-serif" font-size="13" lengthAdjust="spacing" textLength="29.7832" x="1333.7" y="889.7669">uses</text></g><!--reverse link EncryptedRepository to Repository--><g class="link" data-entity-1="EncryptedRepository" data-entity-2="Repository" data-source-line="163" data-uid="lnk24" id="link_EncryptedRepository_Repository"><path codeLine="163" d="M1303.38,322.28 C1355.51,322.28 1403.78,322.28 1456.21,322.28" fill="none" id="EncryptedRepository-backto-Repository" style="stroke:#181818;stroke-width:1;"/><polygon fill="#181818" points="1291.38,322.28,1297.38,326.28,1303.38,322.28,1297.38,318.28,1291.38,322.28" style="stroke:#181818;stroke-width:1;"/><text fill="#000000" font-family="sans-serif" font-size="13" lengthAdjust="spacing" textLength="38.9683" x="1334.8" y="335.3469">wraps</text></g><!--reverse link EncryptedRepository to Vault--><g class="link" data-entity-1="EncryptedRepository" data-entity-2="Vault" data-source-line="164" data-uid="lnk25" id="link_EncryptedRepository_Vault"><path codeLine="164" d="M1024.67,370.53 C1012.23,370.53 1016.11,370.53 1016.11,370.53 C1016.11,370.53 1016.11,594.13 1016.11,735.84" fill="none" id="EncryptedRepository-backto-Vault" style="stroke:#181818;stroke-width:1;"/><polygon fill="#181818" points="1036.67,370.53,1030.67,366.53,1024.67,370.53,1030.67,374.53,1036.67,370.53" style="stroke:#181818;stroke-width:1;"/><text fill="#000000" font-family="sans-serif" font-size="13" lengthAdjust="spacing" textLength="29.7832" x="986.11" y="555.9669">uses</text></g><!--reverse link BaseRepository to DB--><g class="link" data-entity-1="BaseRepository" data-entity-2="DB" data-source-line="165" data-uid="lnk26" id="link_BaseRepository_DB"><path codeLine="165" d="M2174.82,343.7 C2213.63,343.7 2244.58,343.7 2284.97,343.7" fill="none" id="BaseRepository-backto-DB" style="stroke:#181818;stroke-width:1;"/><polygon fill="#181818" points="2162.82,343.7,2168.82,347.7,2174.82,343.7,2168.82,339.7,2162.82,343.7" style="stroke:#181818;stroke-width:1;"/><text fill="#000000" font-family="sans-serif" font-size="13" lengthAdjust="spacing" textLength="29.7832" x="2193.9" y="356.7669">uses</text></g><!--reverse link Manager to Repository--><g class="link" data-entity-1="Manager" data-entity-2="Repository" data-source-line="166" data-uid="lnk27" id="link_Manager_Repository"><path codeLine="166" d="M1298.11,510.11 C1298.11,438.34 1298.11,361.58 1298.11,361.58 C1298.11,361.58 1379.83,361.58 1456.28,361.58" fill="none" id="Manager-backto-Repository" style="stroke:#181818;stroke-width:1;"/><polygon fill="#181818" points="1298.11,522.11,1302.11,516.11,1298.11,510.11,1294.11,516.11,1298.11,522.11" style="stroke:#181818;stroke-width:1;"/><text fill="#000000" font-family="sans-serif" font-size="13" lengthAdjust="spacing" textLength="29.7832" x="1299.11" y="375.8269">uses</text></g><!--reverse link Factory to DB--><g class="link" data-entity-1="Factory" data-entity-2="DB" data-source-line="169" data-uid="lnk28" id="link_Factory_DB"><path codeLine="169" d="M458.06,517.62 C876.18,517.62 2444.11,517.62 2444.11,517.62 C2444.11,517.62 2444.11,467.45 2444.11,421" fill="none" id="Factory-backto-DB" style="stroke:#181818;stroke-width:1;"/><polygon fill="#181818" points="446.06,517.62,452.06,521.62,458.06,517.62,452.06,513.62,446.06,517.62" style="stroke:#181818;stroke-width:1;"/></g><!--reverse link Factory to Vault--><g class="link" data-entity-1="Factory" data-entity-2="Vault" data-source-line="170" data-uid="lnk29" id="link_Factory_Vault"><path codeLine="170" d="M458.34,717.19 C642.39,717.19 1002.11,717.19 1002.11,717.19 C1002.11,717.19 1002.11,724.46 1002.11,735.61" fill="none" id="Factory-backto-Vault" style="stroke:#181818;stroke-width:1;"/><polygon fill="#181818" points="446.34,717.19,452.34,721.19,458.34,717.19,452.34,713.19,446.34,717.19" style="stroke:#181818;stroke-width:1;"/></g><!--reverse link Factory to CryptoStrategy--><g class="link" data-entity-1="Factory" data-entity-2="CryptoStrategy" data-source-line="171" data-uid="lnk30" id="link_Factory_CryptoStrategy"><path codeLine="171" d="M458.24,709.04 C726.48,709.04 1426.11,709.04 1426.11,709.04 C1426.11,709.04 1426.11,782.54 1426.11,832.21" fill="none" id="Factory-backto-CryptoStrategy" style="stroke:#181818;stroke-width:1;"/><polygon fill="#181818" points="446.24,709.04,452.24,713.04,458.24,709.04,452.24,705.04,446.24,709.04" style="stroke:#181818;stroke-width:1;"/></g><!--reverse link Factory to RepositoryFactory--><g class="link" data-entity-1="Factory" data-entity-2="RepositoryFactory" data-source-line="172" data-uid="lnk31" id="link_Factory_RepositoryFactory"><path codeLine="172" d="M458.33,502.96 C509.96,502.96 550.11,502.96 550.11,502.96 C550.11,502.96 550.11,366.58 550.11,274.95" fill="none" id="Factory-backto-RepositoryFactory" style="stroke:#181818;stroke-width:1;"/><polygon fill="#181818" points="446.33,502.96,452.33,506.96,458.33,502.96,452.33,498.96,446.33,502.96" style="stroke:#181818;stroke-width:1;"/></g><!--reverse link Factory to Manager--><g class="link" data-entity-1="Factory" data-entity-2="Manager" data-source-line="173" data-uid="lnk32" id="link_Factory_Manager"><path codeLine="173" d="M458.32,611.7 C603.06,611.7 858.44,611.7 1022.82,611.7" fill="none" id="Factory-backto-Manager" style="stroke:#181818;stroke-width:1;"/><polygon fill="#181818" points="446.32,611.7,452.32,615.7,458.32,611.7,452.32,607.7,446.32,611.7" style="stroke:#181818;stroke-width:1;"/></g><!--reverse link Factory to Repository--><g class="link" data-entity-1="Factory" data-entity-2="Repository" data-source-line="174" data-uid="lnk33" id="link_Factory_Repository"><path codeLine="174" d="M458.36,512.74 C754.17,512.74 1587.11,512.74 1587.11,512.74 C1587.11,512.74 1587.11,453.14 1587.11,404.73" fill="none" id="Factory-backto-Repository" style="stroke:#181818;stroke-width:1;"/><polygon fill="#181818" points="446.36,512.74,452.36,516.74,458.36,512.74,452.36,508.74,446.36,512.74" style="stroke:#181818;stroke-width:1;"/></g><!--reverse link Factory to SecretRepository--><g class="link" data-entity-1="Factory" data-entity-2="SecretRepository" data-source-line="175" data-uid="lnk34" id="link_Factory_SecretRepository"><path codeLine="175" d="M458.19,507.85 C569.44,507.85 721.11,507.85 721.11,507.85 C721.11,507.85 721.11,478.52 721.11,447.81" fill="none" id="Factory-backto-SecretRepository" style="stroke:#181818;stroke-width:1;"/><polygon fill="#181818" points="446.19,507.85,452.19,511.85,458.19,507.85,452.19,503.85,446.19,507.85" style="stroke:#181818;stroke-width:1;"/></g><!--reverse link RepositoryFactory to DB--><g class="link" data-entity-1="RepositoryFactory" data-entity-2="DB" data-source-line="177" data-uid="lnk35" id="link_RepositoryFactory_DB"><path codeLine="177" d="M946.54,167.59 C1408.47,167.59 2444.11,167.59 2444.11,167.59 C2444.11,167.59 2444.11,218.95 2444.11,266.2" fill="none" id="RepositoryFactory-backto-DB" style="stroke:#181818;stroke-width:1;"/><polygon fill="#181818" points="934.54,167.59,940.54,171.59,946.54,167.59,940.54,163.59,934.54,167.59" style="stroke:#181818;stroke-width:1;"/></g><!--reverse link RepositoryFactory to Vault--><g class="link" data-entity-1="RepositoryFactory" data-entity-2="Vault" data-source-line="178" data-uid="lnk36" id="link_RepositoryFactory_Vault"><path codeLine="178" d="M946.68,248.63 C989.25,248.63 1009.11,248.63 1009.11,248.63 C1009.11,248.63 1009.11,561.26 1009.11,735.58" fill="none" id="RepositoryFactory-backto-Vault" style="stroke:#181818;stroke-width:1;"/><polygon fill="#181818" points="934.68,248.63,940.68,252.63,946.68,248.63,940.68,244.63,934.68,248.63" style="stroke:#181818;stroke-width:1;"/></g><!--link CryptoStrategy to GMN37--><g class="link" data-entity-1="CryptoStrategy" data-entity-2="GMN37" data-source-line="185" data-uid="lnk39" id="link_CryptoStrategy_GMN37"><path d="M1587.11,921.25 C1587.11,940.27 1587.11,958.17 1587.11,958.17 C1587.11,958.17 1799.4,958.17 1930.85,958.17" fill="none" id="CryptoStrategy-GMN37" style="stroke:#181818;stroke-width:1;stroke-dasharray:7,7;"/></g><!--link Repository to GMN40--><g class="link" data-entity-1="Repository" data-entity-2="GMN40" data-source-line="191" data-uid="lnk42" id="link_Repository_GMN40"><path d="M1587.11,282.82 C1587.11,192.54 1587.11,33.7 1587.11,33.7 C1587.11,33.7 1791.67,33.7 1923.52,33.7" fill="none" id="Repository-GMN40" style="stroke:#181818;stroke-width:1;stroke-dasharray:7,7;"/></g><!--SRC=[vLZTRzis47_NNt5eWKrncc13qQ0BkWAsOXT1qpQesxmCUw2biws55WMIZgTk_Tzt_91DVRZ9aW3RC3_O5ddVzxlZKHpd6hG0cI-M6h9SOgfpKKJgEYzA9jaAPYozNaYnBh94S25Xiymr1liyBr1N9OAGUYc23RLacTZanGBcZAkG9ULCgQ7MCf-jDPwdefZcNn1-24XAqieMEDKLHp16iMB1GndMebJ80YNy-A8jV2HaXj8P_FIv_GGaUQ5HpbcAtoQpaYQYq8vWniccZgBUw4JVmy_t-11R8gkIqd71AfJtbU9Z1qz2OK_WQV9oCamI-2E2NGIymgcMJEEYWbUljbklNrjIWCDnaHgg-1eh-ENNMQNn6PIS6ShVDIZAOx4uWDZzUGOefP07ZlKCkwnfNYvHtiBxDQ8l6s8OZgTladV_h35V7v3JgHRIvEDnajgGHbcTJ2OddQoUZVepURdMyMoTNgD-1YOAjQStZA_Hn-J0-UqOtc0V0yMeZbyplXmrzj878YzofTzYfJnTAB8lQOb4WkR8qhPP0ga95mhZtLA0dv7WsaGDVHIEiXaCPhHuV3Rw_uNb8KZ-YALGEOMoUYGmRmNcg0ZBuvFnoMJOmdAWT2-cxvoqkoRhjYJrvyM2RcVvbFeDwjli7sPPh2obPzZJlJhc3nnva-fpcH4ksW835svtq3dN4HvM55COkBKhArzGHmr0_ZlJv3pnfmbcNNSahGJWSuitRCqr3AxCprvN_uCPtVavOUcUf7PzLvNIk1fr8d3aZ5NTdSFtk6cYfzsyMX4t33r9QdErIytnJb5RQ-CRR_R33_F4d2EFD9wHA7k0ZqVZiOstouMrj8w_gYUpvg3cDdU3Z2Tcn1Wkh0ikA4uPp8JW7avsAQQvDx_1xErMWaVRXTdq_y_LPyzF0Df9g2UmlpbrtMdIsfviLsJVF4-PkOry4jTOn7l8BM5rIO7Rq3GVOuqLozGfY03oxrX1QP3VBFTqle118efvlWYDcw9IP5TiAo88OLXtv-gAyRmPELVAGxfYtUIwYjjjBs7fqgOatjFr4evCTjW-ueeIGMv-obVchDVqStosbZPs3mPytG- -WpCiiSWem7HOFnZy_MBD3F1oycByKr0EpOPqUFu11kSVg0wGhLIDsOL9vC3z-b3Pf3MJHrDnFV5TjNlPeRyizPJPeK4533ejqlSOsmEXstfi1zpRc2o0OE11s1ZM7c5CupRtQfcNzyuKyPslIeuhBBIJ5hNlYdyU7_lBMMGk7EPnEsj7uTXZTnfTF-hEHeQefzD7jkckxAF1iy_SqL7xwdeAQqN0x3lH3NNmU0eRoShzf4w5bzUQTSm-EUitwnxIKM1tW-f9JTym6PUDtDJRJchZqK4pN6b1CzpgOZFShK7Mpz5Oxi0rwau6tjZ-3MVs_R7xNkZxTvUe86x_BalCkxMynSebqpI75wUqDkHSR1Ie3IjByxBA7o2kTJA-eBk9NguKC0roNPZU6b6x0gEfhQzHvG4SGcqpSw2dr1YKlyUB4gMlBu2va81CLK11qCOQHgfgqzfwPq9hiJAA-ye6gB6cf88U6WPacG8oeL0barJQJN-f0Su8xo1tSbfAkNbXI2ftFR3EVg0a8S6IJhylD7baTNklxDteD_U2qJh6ypccLShDiBAo63NDPglnBm00]--></g></svg>